<?xml version="1.0" encoding="UTF-8" standalone="no"?>
<!-- Created with Inkscape (http://www.inkscape.org/) -->

<svg
   width="512"
   height="512"
   viewBox="0 0 135.46667 135.46667"
   version="1.1"
   id="svg5"
   sodipodi:docname="logo.svg"
   inkscape:version="1.1 (c68e22c387, 2021-05-23)"
   xmlns:inkscape="http://www.inkscape.org/namespaces/inkscape"
   xmlns:sodipodi="http://sodipodi.sourceforge.net/DTD/sodipodi-0.dtd"
   xmlns="http://www.w3.org/2000/svg"
   xmlns:svg="http://www.w3.org/2000/svg">
  <sodipodi:namedview
     id="namedview7"
     pagecolor="#ffffff"
     bordercolor="#666666"
     borderopacity="1.0"
     inkscape:pageshadow="2"
     inkscape:pageopacity="0.0"
     inkscape:pagecheckerboard="0"
     inkscape:document-units="px"
     showgrid="false"
     inkscape:showpageshadow="false"
     units="px"
     fit-margin-top="0"
     fit-margin-left="0"
     fit-margin-right="0"
     fit-margin-bottom="0"
     showguides="true"
     inkscape:guide-bbox="true"
     inkscape:zoom="1.3416246"
     inkscape:cx="313.79866"
     inkscape:cy="261.9958"
     inkscape:window-width="1920"
     inkscape:window-height="1057"
     inkscape:window-x="-8"
     inkscape:window-y="-8"
     inkscape:window-maximized="1"
     inkscape:current-layer="layer1" />
  <defs
     id="defs2" />
  <g
     inkscape:label="Layer 1"
     inkscape:groupmode="layer"
     id="layer1"
     transform="translate(-46.395381,-155.75153)">
    <rect
       style="fill:#de5200;fill-opacity:1;fill-rule:evenodd;stroke:none;stroke-width:0.132178;stroke-linejoin:round;stroke-miterlimit:4;stroke-dasharray:none;stroke-dashoffset:0;stroke-opacity:1"
       id="rect3182"
       width="135.46667"
       height="135.46667"
       x="46.395382"
       y="155.75153" />
    <path
       style="fill:#cdd8d8;fill-opacity:1;stroke:none;stroke-width:0.173363;stroke-miterlimit:4;stroke-dasharray:none;stroke-dashoffset:0;stroke-opacity:1"
       d="m 96.811434,194.04265 c 5.684816,-1.48071 9.470156,-4.91855 11.373226,-10.32916 2.22307,-6.32039 1.28813,-12.05176 -2.73001,-16.73573 -5.14352,-5.99582 -12.588439,-7.23791 -20.615698,-3.43942 -3.415124,1.61601 -7.096181,5.16448 -8.547657,8.23976 -1.182732,2.50588 -1.947249,6.32379 -1.617878,8.07949 0.372774,1.98703 0.987324,2.07545 0.987324,0.14207 0,-2.21802 1.168305,-6.30967 2.403395,-8.4172 1.35753,-2.31646 5.141175,-5.74801 7.64246,-6.93131 4.605928,-2.17896 9.277679,-2.20761 13.765726,-0.0844 4.282378,2.02589 6.864358,5.20655 8.110578,9.99112 0.48132,1.84788 0.48485,2.5512 0.026,5.17924 -0.29197,1.67255 -0.92378,3.85263 -1.40398,4.8446 -1.21129,2.50221 -4.09292,5.20794 -7.227878,6.78668 -2.356991,1.18697 -2.977342,1.33264 -5.674934,1.33264 -1.993553,0 -3.91473,-0.27367 -5.621215,-0.80076 -5.168573,-1.59641 -8.578359,-6.65004 -8.578359,-12.71396 0,-3.91722 0.878595,-6.16603 3.38022,-8.65186 2.703465,-2.68637 5.121642,-3.84325 9.082504,-4.34518 3.768412,-0.47754 5.892794,0.005 8.384818,1.90892 2.843654,2.1713 4.421564,5.49468 4.428994,9.32827 0.0105,5.48378 -3.63096,10.26186 -8.887316,11.66092 -7.990082,2.12667 -13.335339,-1.73774 -13.462338,-9.73279 -0.05247,-3.30262 0.662974,-5.08841 2.871594,-7.16771 2.783595,-2.6206 7.334628,-3.84349 10.462284,-2.81128 2.017791,0.66593 4.603681,3.16253 5.379346,5.19359 1.79731,4.70623 -1.118671,10.339 -6.125677,11.83281 -2.506665,0.74784 -3.785971,0.70941 -5.490996,-0.16497 -1.867884,-0.95792 -2.922488,-2.13543 -3.845731,-4.29391 -1.684513,-3.9383 -0.148355,-7.79054 3.780631,-9.48075 2.31737,-0.99689 3.898251,-1.00489 5.912395,-0.0299 3.070046,1.48619 3.955455,4.66786 2.28098,8.19657 -0.845503,1.78177 -1.798138,2.41029 -4.517723,2.98074 -1.970875,0.4134 -2.241289,0.38549 -3.20842,-0.33097 -1.514367,-1.12188 -2.777056,-3.1319 -2.777056,-4.42068 0,-2.30276 1.643617,-4.29259 3.889969,-4.70937 2.177622,-0.40402 3.625279,0.0811 4.509032,1.51106 1.047035,1.69414 0.981454,2.66078 -0.272457,4.01598 -1.437924,1.55407 -3.404288,1.87684 -4.790596,0.78637 -1.239888,-0.9753 -1.336191,-2.21512 -0.261644,-3.36852 0.876976,-0.9413 1.528158,-1.05305 2.20317,-0.37805 0.713474,0.71348 0.541517,1.45323 -0.33781,1.45323 -0.942028,0 -0.79541,0.8946 0.177539,1.08324 1.603949,0.31101 2.384744,-2.06074 1.133547,-3.44329 -0.92427,-1.02131 -2.326211,-0.85848 -3.603185,0.41851 -1.212744,1.21273 -1.345501,1.93925 -0.695213,3.80467 0.526925,1.51153 1.343431,1.96112 3.561642,1.96112 2.537463,0 4.078266,-1.4552 4.331518,-4.09081 0.173268,-1.80325 0.09125,-2.04612 -1.147637,-3.39797 -1.230954,-1.3432 -1.498599,-1.45756 -3.457297,-1.47707 -2.395596,-0.0238 -3.672307,0.68666 -5.178816,2.8822 -0.746556,1.08801 -0.868821,1.66747 -0.740077,3.50742 0.253892,3.62847 2.108856,5.34456 5.814348,5.37902 2.791707,0.026 5.220082,-1.36096 6.785462,-3.87538 1.712962,-2.75149 0.50073,-7.5958 -2.377334,-9.50041 -2.059767,-1.36309 -5.277195,-1.32737 -8.173351,0.0908 -2.627758,1.28668 -3.419986,2.13966 -4.227306,4.55144 -1.345098,4.01832 0.241623,8.49501 3.923282,11.06893 1.341738,0.93804 2.007939,1.14154 3.658904,1.11768 7.683978,-0.11101 12.835177,-6.63997 10.789897,-13.67557 -0.73907,-2.54227 -2.941236,-5.19119 -5.36412,-6.45232 -3.508134,-1.82601 -9.66878,-0.39554 -12.989129,3.01595 -2.528195,2.59762 -3.074789,4.05563 -3.029777,8.08176 0.03395,3.03643 0.188589,3.84029 1.095308,5.69354 1.464452,2.99324 3.525872,4.879 6.391329,5.84668 2.957055,0.99861 4.675397,1.00137 7.611538,0.0118 2.912292,-0.9811 3.890634,-1.60014 6.154301,-3.89417 2.15617,-2.1851 2.80065,-3.34882 3.48847,-6.29906 1.59062,-6.82269 -2.18731,-13.82572 -8.439029,-15.64316 -7.346743,-2.13577 -16.510587,2.47329 -18.802847,9.4571 -1.489826,4.53903 -0.722012,8.55822 2.599821,13.6089 2.562833,3.89667 3.795299,4.84713 7.62555,5.88068 3.15798,0.85214 5.38278,0.89587 8.203352,0.16119 z"
       id="path2570" />
    <path
       style="fill:#cdd8d8;fill-opacity:1;stroke:none;stroke-width:0.173363;stroke-miterlimit:4;stroke-dasharray:none;stroke-dashoffset:0;stroke-opacity:1"
       d="m 97.62829,196.91327 c 11.70226,-2.99295 17.82161,-14.41991 13.85413,-25.87061 -1.18388,-3.41689 -1.819,-4.43879 -4.25354,-6.84391 -3.46012,-3.4183 -8.659791,-5.53623 -13.578881,-5.53097 -8.268051,0.009 -17.19563,5.23755 -20.563698,12.04373 -1.723752,3.48334 -2.043036,9.56064 -0.502288,9.56064 0.349475,0 0.539614,-0.75792 0.627835,-2.50265 0.412067,-8.1494 5.565263,-14.08022 14.611924,-16.81688 3.948598,-1.19446 9.089532,-0.96088 12.854818,0.5841 8.13209,3.33677 12.76391,14.17138 9.53466,22.30325 -1.34525,3.38758 -2.69705,5.29814 -5.54111,7.83156 -3.42126,3.04759 -6.693405,4.28812 -11.221271,4.25426 -2.640204,-0.0197 -3.987336,-0.23293 -5.743725,-0.90891 -1.262005,-0.48571 -2.896872,-0.95618 -3.633042,-1.04552 -1.293291,-0.15694 -1.312661,-0.14093 -0.573639,0.47395 0.9983,0.83059 3.76298,2.08129 5.927596,2.68156 2.52771,0.70097 4.861986,0.64017 8.200231,-0.2136 z"
       id="path2568" />
    <path
       style="fill:#cdd8d8;fill-opacity:1;stroke:none;stroke-width:0.173363;stroke-miterlimit:4;stroke-dasharray:none;stroke-dashoffset:0;stroke-opacity:1"
       d="m 99.371116,198.42404 c 1.577514,-0.49162 3.556544,-1.32043 4.397874,-1.84184 4.38664,-2.71851 8.06459,-7.10526 9.11002,-10.8657 0.79393,-2.85571 1.0646,-4.55839 0.68765,-4.32542 -0.17879,0.11047 -0.42067,0.9137 -0.53751,1.78491 -0.50215,3.74383 -3.88733,8.52984 -8.06738,11.4058 -6.54671,4.50428 -11.515738,5.00111 -20.634444,2.06311 -0.56539,-0.18216 -0.677571,-0.0523 -0.573639,0.66406 0.345124,2.37871 9.471651,3.03033 15.617429,1.11508 z"
       id="path2566" />
    <path
       style="fill:#cdd8d8;fill-opacity:1;stroke:none;stroke-width:0.173363;stroke-miterlimit:4;stroke-dasharray:none;stroke-dashoffset:0;stroke-opacity:1"
       d="m 80.645547,212.49149 c 2.003678,-1.01116 2.650345,-2.11731 2.658066,-4.54675 0.0065,-2.05628 -1.13214,-3.91146 -1.923604,-3.13397 -0.349654,0.34345 -0.311997,0.64828 0.164069,1.32797 0.775288,1.10687 0.798015,3.34404 0.0449,4.41927 -0.315145,0.44994 -1.341128,1.11142 -2.279959,1.46996 -1.657573,0.63304 -1.746749,0.62843 -3.081906,-0.15934 -1.60597,-0.94754 -2.096071,-1.01267 -2.096071,-0.27849 0,0.61671 2.416268,1.71323 3.83883,1.74211 0.533851,0.0105 1.737906,-0.3675 2.675679,-0.84076 z"
       id="path2564" />
    <path
       style="fill:#cdd8d8;fill-opacity:1;stroke:none;stroke-width:0.173363;stroke-miterlimit:4;stroke-dasharray:none;stroke-dashoffset:0;stroke-opacity:1"
       d="m 80.015099,215.48753 c 3.7271,-1.12168 5.97113,-3.91307 5.97113,-7.42759 0,-3.18259 -1.346404,-5.41591 -3.265091,-5.41591 -0.496629,0 -0.382961,0.29093 0.511873,1.31009 3.938405,4.48561 -0.04571,11.69496 -5.851356,10.5882 -0.841337,-0.16038 -1.873885,-0.47799 -2.294552,-0.70579 -0.796753,-0.43146 -2.634473,-2.38794 -2.418452,-2.57474 0.06816,-0.0589 0.693475,-0.39688 1.389628,-0.75103 0.696147,-0.35415 1.948358,-1.26062 2.782688,-2.01439 0.834335,-0.75378 1.574254,-1.30334 1.644273,-1.22125 0.07001,0.0821 0.241791,0.62627 0.381714,1.20931 0.297241,1.23857 -0.577756,1.81819 -1.693163,1.12162 -0.519138,-0.3242 -0.726433,-0.30425 -0.875521,0.0843 -0.491098,1.2798 1.946951,1.8484 3.440362,0.80238 1.667627,-1.16806 1.418249,-3.64197 -0.367126,-3.64197 h -0.784685 l 0.788355,-0.86045 c 0.433597,-0.47325 1.192742,-1.63488 1.686993,-2.58138 0.787869,-1.50878 0.896941,-2.23944 0.884897,-5.9276 -0.01114,-3.41044 -0.172634,-4.60786 -0.853244,-6.32621 -1.713642,-4.32649 -7.111605,-9.54444 -9.873724,-9.54444 -0.687829,0 -1.356959,-0.17209 -1.486954,-0.38242 -0.330115,-0.53414 -4.1334,-0.4534 -6.931009,0.14718 -5.145091,1.10447 -9.489087,4.27042 -11.581506,8.44075 -1.14424,2.28053 -1.325073,3.04843 -1.48115,6.28963 -0.155426,3.22775 -0.06916,3.94448 0.686224,5.70038 0.475203,1.10465 0.912496,1.95995 0.971762,1.90067 0.05926,-0.0592 -0.13627,-1.0485 -0.434524,-2.19832 -1.719476,-6.62874 0.375718,-12.47657 5.789434,-16.15867 5.062608,-3.44331 10.135486,-4.32265 14.892898,-2.58155 1.800528,0.65894 2.842462,1.40171 4.839372,3.44982 3.404876,3.49221 4.303389,5.7152 4.323872,10.69759 0.01387,3.35757 -0.08272,3.83952 -1.239606,6.1895 -2.160864,4.38933 -6.010952,7.07148 -11.425371,7.95949 -6.841597,1.12206 -12.515674,-2.02663 -14.663307,-8.13704 -0.862649,-2.45439 -1.029704,-7.13492 -0.344533,-9.65303 1.387786,-5.10038 8.272431,-9.34531 14.436167,-8.90104 6.62483,0.47749 10.846839,5.44823 10.849867,12.77401 0.0019,4.54454 -2.98018,9.00263 -7.326697,10.95316 -2.38433,1.06998 -5.815766,1.27035 -8.774499,0.51236 -4.759264,-1.21927 -7.291161,-4.50974 -7.614108,-9.89533 -0.13562,-2.26179 -0.01527,-3.3966 0.504614,-4.75789 1.62982,-4.26763 6.056493,-6.99529 11.352529,-6.99529 2.42668,0 2.991205,0.14612 4.801887,1.24288 3.059022,1.85291 4.241398,3.99929 4.54289,8.24675 0.206292,2.90624 0.135318,3.54078 -0.54379,4.86178 -1.114917,2.16866 -2.637654,3.46977 -5.35148,4.57247 -2.816059,1.14428 -5.548012,1.2293 -8.31087,0.25869 -1.518734,-0.53356 -2.166762,-1.04898 -3.149815,-2.50531 -2.383229,-3.53058 -2.671034,-7.78357 -0.701467,-10.36581 3.194361,-4.18801 8.368819,-5.51156 12.423823,-3.17779 2.366932,1.36224 3.28159,3.31313 3.282171,7.00062 3.81e-4,2.7629 -0.103289,3.19503 -1.070241,4.45896 -1.41957,1.85556 -3.35602,2.737 -6.424071,2.92415 -3.171524,0.19347 -4.566594,-0.46713 -6.103115,-2.88998 -0.898699,-1.4171 -1.125476,-2.20405 -1.125476,-3.90559 0,-2.86699 1.144848,-4.56117 3.876233,-5.73619 4.267716,-1.83592 8.259659,0.0534 8.647785,4.09263 0.328014,3.41372 -1.667979,5.85719 -5.011017,6.13443 -2.935105,0.24339 -4.614602,-0.62414 -5.342175,-2.75943 -0.715646,-2.10029 -0.452349,-3.3774 0.986286,-4.78394 1.956076,-1.91241 4.726893,-1.99673 6.419235,-0.19531 1.913811,2.03716 0.624913,5.22377 -2.313686,5.72025 -1.751103,0.29584 -2.889745,-0.31198 -3.416827,-1.82397 -0.306052,-0.87794 -0.237398,-1.21141 0.375595,-1.8244 1.0296,-1.0296 2.914209,-0.9987 3.248085,0.0532 0.140232,0.44185 0.08287,0.97544 -0.127454,1.18578 -0.254949,0.25495 -0.469776,0.10719 -0.644473,-0.44322 -0.180867,-0.56985 -0.51723,-0.7891 -1.085751,-0.70775 -1.09838,0.15723 -1.250134,1.22899 -0.30749,2.17164 1.676023,1.67603 4.223339,-0.52562 3.201911,-2.76741 -0.857405,-1.8818 -4.483767,-1.62978 -5.397247,0.37508 -0.673772,1.47879 -0.520416,2.33095 0.656521,3.64817 0.923244,1.0333 1.332015,1.20878 2.691767,1.15548 3.377348,-0.1324 5.242809,-1.99207 4.915048,-4.89998 -0.281937,-2.50133 -1.53282,-3.65397 -4.205904,-3.87566 -4.040398,-0.33505 -6.663035,2.0288 -6.311372,5.68864 0.321012,3.34086 3.578229,5.97537 6.758878,5.46678 4.050396,-0.64768 6.46413,-3.72443 5.97749,-7.61938 -0.45741,-3.66099 -2.794624,-5.53547 -6.901947,-5.53547 -2.424956,0 -4.313318,0.81557 -6.200666,2.67804 -3.226891,3.18438 -1.579379,9.86788 2.908361,11.79846 2.24173,0.96437 3.797531,1.02763 6.383887,0.25955 2.878674,-0.85487 4.95452,-2.56653 5.674233,-4.67877 0.815899,-2.39454 0.765074,-3.67572 -0.253894,-6.40003 -1.626475,-4.34854 -5.261292,-6.75229 -9.360753,-6.19039 -8.461657,1.15979 -11.890185,11.26754 -5.91431,17.43615 2.075983,2.14294 4.162217,2.89082 7.148521,2.56264 4.601481,-0.50567 8.076768,-2.3393 10.031296,-5.29274 1.38321,-2.09012 1.686271,-6.45615 0.662165,-9.53945 -1.004573,-3.02447 -4.24813,-6.18998 -7.21853,-7.0448 -2.929286,-0.84299 -5.788341,-0.53249 -8.828889,0.95883 -4.315835,2.11686 -6.326455,4.56938 -6.906216,8.42404 -0.142356,0.94651 -0.320063,2.04989 -0.394902,2.45196 -0.07484,0.40208 0.0596,1.52067 0.298724,2.48576 1.125521,4.54236 3.076253,7.20257 6.404836,8.73427 1.824351,0.83952 2.646549,0.97627 5.77412,0.96043 3.220914,-0.0164 3.945508,-0.15387 6.203852,-1.17787 7.03796,-3.19116 9.6349,-9.8285 6.761153,-17.28037 -1.352674,-3.50761 -3.3165,-5.77599 -6.289194,-7.26452 -1.703423,-0.85297 -2.362924,-0.95324 -6.11599,-0.92989 -3.985157,0.0249 -4.358688,0.0971 -7.093247,1.37353 -3.252232,1.51803 -5.080988,3.19839 -6.681769,6.13955 -2.029498,3.72887 -1.618978,10.13417 0.976504,15.23618 0.935384,1.83873 3.128542,3.65688 6.020036,4.99072 2.135554,0.98512 2.816941,1.10698 6.189518,1.10698 2.084379,0 4.238008,-0.17041 4.785837,-0.37872 0.901659,-0.3428 1.071477,-0.25087 1.791835,0.97004 0.771096,1.30694 2.163737,2.27352 4.143089,2.8756 1.392391,0.42357 1.610033,0.41241 3.591982,-0.18408 z"
       id="path2562" />
    <path
       style="fill:#cdd8d8;fill-opacity:1;stroke:none;stroke-width:0.173363;stroke-miterlimit:4;stroke-dasharray:none;stroke-dashoffset:0;stroke-opacity:1"
       d="m 83.315413,217.28123 c 2.253346,-1.01808 4.29983,-2.95078 5.35359,-5.05592 0.700858,-1.40014 0.819339,-2.14271 0.671168,-4.20668 -0.310709,-4.32803 -2.45383,-7.30927 -5.222036,-7.26424 -1.225724,0.0199 -1.299926,0.0742 -0.654258,0.47803 3.284316,2.05442 4.705031,4.70401 4.272122,7.96744 -0.14425,1.08743 -0.496116,2.4235 -0.781927,2.96901 -0.766751,1.46353 -2.831333,3.43728 -4.469808,4.27317 -3.11746,1.59041 -8.496937,0.40844 -10.717591,-2.35487 -1.487918,-1.85153 -2.547432,-2.08609 -1.658556,-0.36721 0.735633,1.42257 2.704215,3.00961 4.853258,3.91264 2.12288,0.89206 5.959088,0.7307 8.354038,-0.35137 z"
       id="path2560" />
    <path
       style="fill:#cdd8d8;fill-opacity:1;stroke:none;stroke-width:0.173363;stroke-miterlimit:4;stroke-dasharray:none;stroke-dashoffset:0;stroke-opacity:1"
       d="m 85.055819,219.84688 c 6.775514,-3.27074 9.441309,-10.27451 6.322244,-16.61023 -1.106422,-2.24746 -1.349994,-2.50475 -2.37129,-2.50475 h -1.138211 l 0.827761,0.86047 c 0.455269,0.47325 1.257782,1.78312 1.783369,2.91084 0.818431,1.75604 0.930184,2.44223 0.778503,4.7803 -0.0974,1.50147 -0.472723,3.29954 -0.834039,3.99568 -1.646725,3.17275 -4.820979,5.55157 -9.105919,6.82407 -1.091389,0.32412 -1.754432,0.71534 -1.609565,0.94972 0.368502,0.59627 2.705463,0.0691 5.347147,-1.2061 z"
       id="path2558" />
    <path
       style="fill:#cdd8d8;fill-opacity:1;stroke:none;stroke-width:0.173363;stroke-miterlimit:4;stroke-dasharray:none;stroke-dashoffset:0;stroke-opacity:1"
       d="m 78.720145,221.19167 c 0.407742,-0.4913 0.284134,-0.57363 -0.861157,-0.57363 -3.140157,0 -7.071239,-2.23488 -8.78755,-4.99583 -1.48326,-2.38608 -2.684921,-2.65514 -1.370494,-0.30687 1.112044,1.9867 4.27185,4.78446 6.040602,5.34846 0.740055,0.23598 1.509043,0.58036 1.70886,0.76529 0.586646,0.54292 2.752642,0.38565 3.269739,-0.23742 z"
       id="path2556" />
    <path
       style="fill:#cdd8d8;fill-opacity:1;stroke:none;stroke-width:0.186744;stroke-miterlimit:4;stroke-dasharray:none;stroke-dashoffset:0;stroke-opacity:1"
       d="m 116.80196,225.10426 c 1.35656,-1.76262 0.65259,-4.02725 -1.25185,-4.02725 -1.31146,0 -2.12762,0.66368 -2.12762,1.73016 0,0.78848 1.0148,1.02044 1.4418,0.32954 0.39065,-0.63207 1.4418,-0.48884 1.4418,0.1965 0,0.33462 -0.46344,0.91205 -1.02985,1.28321 -0.95402,0.62509 -1.10571,0.62509 -2.05974,0 -1.42475,-0.93356 -1.33155,-2.38845 0.23759,-3.70878 1.74581,-1.46899 3.4494,-1.40932 4.83466,0.16937 1.28774,1.46753 1.88816,1.59126 1.49929,0.30894 -0.78152,-2.57715 -3.19617,-3.62991 -5.87093,-2.55967 -2.01968,0.80812 -2.9663,2.1193 -2.9663,4.1087 0,2.186 1.61338,3.67754 3.62488,3.35112 0.8655,-0.14046 1.81113,-0.64247 2.22627,-1.18184 z"
       id="path2554" />
    <path
       style="fill:#cdd8d8;fill-opacity:1;stroke:none;stroke-width:0.186744;stroke-miterlimit:4;stroke-dasharray:none;stroke-dashoffset:0;stroke-opacity:1"
       d="m 100.09628,228.29922 c -0.127607,-0.33259 -0.0628,-0.70928 0.1439,-0.83708 0.20678,-0.12789 0.25356,-0.55083 0.10389,-0.94008 -0.22519,-0.58591 -0.31673,-0.5305 -0.532007,0.32216 -0.477428,1.89116 -0.878098,-4.58506 -0.426868,-6.89981 0.556868,-2.85661 1.220475,-4.06124 3.826375,-6.94599 l 2.1779,-2.41096 -1.81311,1.41528 c -3.629047,2.83275 -5.708695,7.66274 -5.207335,12.09408 0.15488,1.36899 0.55132,3.01065 0.88096,3.64812 0.621738,1.20229 1.253735,1.61628 0.846225,0.55428 z"
       id="path2552" />
    <path
       style="fill:#cdd8d8;fill-opacity:1;stroke:none;stroke-width:0.186744;stroke-miterlimit:4;stroke-dasharray:none;stroke-dashoffset:0;stroke-opacity:1"
       d="m 118.0546,238.2063 c 4.16022,-0.79657 6.23177,-1.75477 8.78794,-4.06489 3.0153,-2.72505 4.78929,-6.26254 5.03124,-10.03262 0.10545,-1.64262 0.0421,-3.32115 -0.14087,-3.73005 -0.18291,-0.4089 -0.36712,-1.02153 -0.40936,-1.36137 -0.1423,-1.1448 -2.71983,-6.19026 -3.05617,-5.9824 -0.18323,0.11321 -0.43444,-0.18141 -0.55822,-0.6548 -0.1238,-0.4734 -0.4096,-0.74668 -0.6351,-0.60731 -0.22552,0.13933 -0.52213,-0.0998 -0.65915,-0.53155 -0.31308,-0.98643 -3.29235,-2.25935 -6.9381,-2.96437 -3.38,-0.6536 -6.91284,-0.17834 -10.25317,1.37933 -3.48032,1.62295 -5.60101,3.74858 -7.25969,7.27653 -1.93705,4.12005 -2.043177,7.66064 -0.33649,11.22722 1.45389,3.03832 4.13261,5.84761 6.67996,7.00551 2.44549,1.11163 7.87447,1.36073 11.13784,0.51109 5.78727,-1.50678 9.33846,-6.13626 9.35624,-12.19714 0.007,-2.73398 -0.1686,-3.52013 -1.31303,-5.84477 -2.31398,-4.70039 -5.99845,-6.88727 -11.62461,-6.89962 -1.85858,-0.004 -3.57603,0.18937 -3.81658,0.42992 -0.24054,0.24054 -0.79517,0.43734 -1.23252,0.43734 -0.43737,0 -2.02557,1.25257 -3.52965,2.78374 -2.26318,2.30392 -2.86659,3.21995 -3.50078,5.31453 -0.9071,2.99594 -0.67244,5.51536 0.77931,8.36674 1.18493,2.32731 2.37147,3.44807 4.77709,4.51218 8.36053,3.69825 16.84402,-1.3029 16.29665,-9.60711 -0.28145,-4.26991 -2.33688,-7.22582 -6.0357,-8.67989 -2.73127,-1.07371 -5.55669,-0.95978 -8.09479,0.32638 -4.67648,2.36973 -6.66155,7.35899 -4.67212,11.74284 1.77966,3.92163 6.28375,5.90211 10.33674,4.54511 1.90089,-0.63645 3.98374,-2.2407 4.93535,-3.80132 0.83374,-1.36727 1.07155,-2.9553 0.37842,-2.52694 -0.22657,0.14004 -0.41194,-0.0344 -0.41194,-0.38762 0,-0.35323 0.20948,-0.64223 0.46552,-0.64223 0.76547,0 0.15807,-3.48906 -0.8551,-4.91193 -1.27029,-1.78397 -3.08799,-2.61351 -5.67571,-2.59026 -2.63676,0.0237 -5.51654,1.52932 -6.72929,3.51822 -1.02724,1.68469 -1.02567,4.39757 0.004,6.41537 2.06086,4.03962 8.37502,3.64599 10.16312,-0.63357 0.91051,-2.17919 0.65352,-3.00175 -0.32207,-1.03082 -2.19247,4.42935 -7.51209,4.34903 -8.99221,-0.13579 -0.78461,-2.37739 0.0558,-4.50977 2.29405,-5.82154 1.54488,-0.90536 2.21215,-1.05612 3.93962,-0.89013 1.69061,0.16245 2.35268,0.47279 3.53876,1.65887 1.19055,1.19056 1.48714,1.82639 1.61175,3.45524 0.19556,2.55653 -0.7238,4.40813 -3.07872,6.2005 -5.3166,4.04659 -12.63539,-1.34268 -10.68554,-7.86843 1.38411,-4.63235 7.57513,-7.38501 11.76384,-5.23044 4.20329,2.16206 6.1857,7.15826 4.36375,10.99775 -0.3664,0.77211 -1.66701,2.31855 -2.89029,3.43656 -1.70854,1.56152 -2.64462,2.09579 -4.03807,2.30475 -8.07307,1.21062 -14.47303,-6.04616 -11.36699,-12.8888 1.93934,-4.27234 4.94193,-6.49487 9.39529,-6.95444 6.04416,-0.62372 11.3576,3.24033 12.25088,8.90914 0.16065,1.01955 0.50286,2.12106 0.76046,2.44775 0.35217,0.44664 0.34966,0.52286 -0.01,0.3072 -0.31928,-0.1914 -0.57565,0.29613 -0.77074,1.46572 -0.66321,3.97607 -3.00853,6.9288 -6.57779,8.28135 -3.48283,1.3198 -5.85698,1.55676 -8.56547,0.85492 -6.47299,-1.67731 -10.2696,-6.12669 -10.2696,-12.03532 0,-2.29285 0.22877,-3.12853 1.59057,-5.81031 1.34023,-2.6393 1.95477,-3.37456 3.9045,-4.67158 4.45449,-2.96325 10.97832,-3.60869 15.39974,-1.52359 5.02798,2.37115 8.33558,7.63757 7.8914,12.5648 -0.78583,8.7169 -7.12182,14.16385 -16.49445,14.18001 -4.64427,0.008 -6.76291,-0.88489 -10.83625,-4.56691 -0.90185,-0.8152 -1.75724,-1.78842 -1.90087,-2.16271 -0.14363,-0.37427 -0.45708,-0.68049 -0.69659,-0.68049 -0.662047,0 0.70294,2.38052 2.25486,3.93242 2.32113,2.32113 7.12575,4.49613 10.29224,4.65921 0.91449,0.0472 3.09833,-0.18926 4.853,-0.5252 z"
       id="path2550" />
    <path
       style="fill:#cdd8d8;fill-opacity:1;stroke:none;stroke-width:0.165344;stroke-miterlimit:4;stroke-dasharray:none;stroke-dashoffset:0;stroke-opacity:1"
       d="m 165.12631,221.49532 c -3.06166,-2.70675 -7.34479,-4.02052 -10.38501,-3.18546 -0.76967,0.21141 -0.23343,0.32648 2.12173,0.4553 2.67381,0.14625 3.52034,0.36147 5.58285,1.41934 1.33714,0.68581 2.69352,1.53683 3.01417,1.89116 0.32066,0.3543 0.68067,0.63738 0.80003,0.62902 0.11936,-0.009 -0.39083,-0.55256 -1.13377,-1.20936 z"
       id="path2548" />
    <path
       style="fill:#cdd8d8;fill-opacity:1;stroke:none;stroke-width:0.165344;stroke-miterlimit:4;stroke-dasharray:none;stroke-dashoffset:0;stroke-opacity:1"
       d="m 156.52533,237.3231 c 0.14349,-0.007 0.83595,-0.51869 1.53883,-1.13584 2.20675,-1.93754 2.11465,-5.48065 -0.19293,-7.42235 -1.34805,-1.1343 -3.61807,-1.28104 -4.64784,-0.30043 -0.36865,0.35106 -0.98414,0.81922 -1.36776,1.04038 -1.10405,0.6365 -1.15049,3.43969 -0.0775,4.67493 1.56089,1.79682 5.18125,1.59594 6.06166,-0.33636 0.44586,-0.97856 0.007,-3.04462 -0.74804,-3.52405 -0.75636,-0.48007 -2.71093,-0.34468 -3.17979,0.22027 -0.99215,1.19545 0.40005,3.94407 1.46054,2.88358 0.29646,-0.29648 0.27846,-0.6069 -0.0673,-1.16062 -0.57139,-0.91493 -0.27332,-1.30476 0.74942,-0.98015 0.77073,0.24462 1.04797,1.74974 0.47783,2.59387 -0.50661,0.75002 -2.00906,0.86215 -3.07951,0.22982 -1.91703,-1.13242 -1.94555,-3.91668 -0.0489,-4.7808 2.32254,-1.05822 4.36956,-0.11574 5.253,2.41838 0.74576,2.13935 -1.10468,4.34362 -3.96892,4.72778 -1.25055,0.16774 -1.72651,0.0404 -2.74147,-0.7338 -1.41422,-1.07868 -2.28457,-3.52833 -1.89072,-5.3215 0.14492,-0.65986 0.10061,-1.13108 -0.10624,-1.13108 -0.93552,0 -1.09126,3.48022 -0.23026,5.14522 0.8593,1.66167 3.68437,3.31885 5.26857,3.09052 0.70213,-0.10124 1.39396,-0.19018 1.53744,-0.19777 z"
       id="path2546" />
    <path
       style="fill:#cdd8d8;fill-opacity:1;stroke:none;stroke-width:0.165344;stroke-miterlimit:4;stroke-dasharray:none;stroke-dashoffset:0;stroke-opacity:1"
       d="m 160.95467,246.05931 c 3.08073,-0.96009 5.28458,-3.04397 6.93927,-6.56156 0.99527,-2.11575 1.11638,-2.74351 1.12578,-5.83578 0.009,-2.79402 -0.15949,-3.91314 -0.86754,-5.77925 -1.09851,-2.89517 -3.5965,-5.55135 -6.50057,-6.91221 -1.88875,-0.88506 -2.49714,-0.98293 -5.93425,-0.95462 -3.2954,0.0271 -4.11867,0.16268 -5.90076,0.97138 -5.39495,2.44818 -7.88393,7.26076 -6.82779,13.20197 0.40903,2.30098 1.56296,4.94378 2.15862,4.94378 0.19653,0 0.35732,0.24087 0.35732,0.53529 0,0.66974 3.34417,3.20591 5.2807,4.00476 2.08595,0.86052 6.48654,0.8041 8.90312,-0.11411 3.79298,-1.44122 5.79179,-3.80971 6.60393,-7.8254 0.81844,-4.04674 -0.10948,-7.50815 -2.81539,-10.50337 -1.92875,-2.1349 -3.79183,-2.96843 -7.03027,-3.1453 -3.10619,-0.16965 -6.1368,0.67289 -8.26836,2.2987 -4.08426,3.11523 -4.33988,10.50025 -0.49621,14.33524 4.83099,4.82003 13.22609,3.65939 15.59218,-2.15564 0.96946,-2.38265 1.02767,-3.92879 0.24742,-6.57357 -2.04859,-6.94404 -12.36678,-8.06654 -15.68864,-1.70675 -0.67475,1.29182 -0.88846,4.36812 -0.42106,6.06093 0.51557,1.86723 3.01456,4.24837 5.02885,4.79162 3.51444,0.94788 7.43949,-0.51514 8.83802,-3.29433 0.84147,-1.67215 0.82368,-4.58138 -0.0377,-6.18777 -0.8717,-1.62537 -2.94498,-3.2967 -4.49152,-3.62073 -2.60463,-0.54572 -6.23589,0.79582 -5.87629,2.17094 0.10186,0.38977 0.32362,0.62319 0.49266,0.51872 0.16904,-0.10449 0.21489,-0.4309 0.10186,-0.72537 -0.11298,-0.29449 -0.0647,-0.54488 0.10712,-0.55643 1.27281,-0.0856 3.35936,-0.34972 3.99211,-0.50539 1.15642,-0.28446 3.91347,1.6361 4.68612,3.26436 1.66606,3.51098 -0.70704,7.66189 -4.63337,8.10443 -3.02483,0.34095 -5.68544,-1.09243 -6.87035,-3.70136 -2.04379,-4.49998 1.12209,-9.37031 6.22472,-9.576 5.64883,-0.22768 9.695,5.86282 7.34003,11.04862 -1.27259,2.80236 -4.884,4.70652 -8.33486,4.39472 -2.34319,-0.21171 -5.03782,-1.82526 -6.44908,-3.86167 -1.94014,-2.79967 -1.59221,-7.81731 0.73022,-10.53055 1.59555,-1.86404 3.63594,-2.66579 6.94532,-2.72909 2.25548,-0.0431 2.93161,0.10399 4.74657,1.03208 4.82896,2.46961 6.45498,7.82728 4.06792,13.40367 -1.21696,2.84298 -4.815,4.95907 -8.55967,5.03417 -3.3586,0.0674 -6.71416,-1.19941 -8.4745,-3.19925 -0.79486,-0.90303 -1.63024,-2.20249 -1.85638,-2.8877 -0.22614,-0.6852 -0.52153,-1.24591 -0.65643,-1.24603 -0.13495,-1e-4 -0.29739,-1.27857 -0.36112,-2.84106 -0.23609,-5.7887 2.22198,-9.32129 7.59297,-10.91215 3.70153,-1.09639 8.31079,-0.41129 11.17061,1.66035 1.90429,1.37948 3.5851,4.06045 4.30541,6.86737 0.72162,2.81204 0.2805,6.66723 -1.0838,9.47223 -2.26323,4.65312 -10.09411,7.2917 -15.56394,5.24417 -2.68527,-1.00517 -4.67856,-2.05991 -4.4067,-2.33178 0.12586,-0.12586 0.0399,-0.22893 -0.19141,-0.22893 -0.2312,0 -0.84768,-0.64575 -1.36998,-1.43498 -0.65228,-0.98567 -1.13928,-1.37462 -1.5553,-1.24218 -0.45418,0.14458 -0.48597,0.10698 -0.12711,-0.15065 0.3875,-0.27812 0.32779,-0.78783 -0.31382,-2.67876 -0.64927,-1.91351 -0.7612,-2.89819 -0.61978,-5.45216 0.20614,-3.72249 1.02037,-5.79331 3.21342,-8.17248 1.56627,-1.69919 6.1159,-4.21194 7.62625,-4.21194 0.40691,0 0.73985,-0.16726 0.73985,-0.37169 0,-0.99053 -7.15536,2.18183 -9.03335,4.00497 -2.7282,2.64851 -4.42167,8.17771 -3.72751,12.17028 0.49414,2.84211 1.30567,4.95457 2.20201,5.73195 0.38373,0.33282 0.57758,0.73771 0.43078,0.89975 -0.14681,0.16204 0.0125,0.19479 0.35279,0.0727 0.42375,-0.15174 0.56024,-0.067 0.43165,0.26818 -0.29233,0.76182 2.85347,3.18583 5.60203,4.31669 2.20884,0.90878 2.78724,0.9965 5.56528,0.84388 1.70515,-0.0936 4.22605,-0.52113 5.60204,-0.94994 z"
       id="path2544" />
    <path
       style="fill:#cdd8d8;fill-opacity:1;stroke:none;stroke-width:0.165344;stroke-miterlimit:4;stroke-dasharray:none;stroke-dashoffset:0;stroke-opacity:1"
       d="m 148.78738,246.83152 c 0,-0.17917 -0.25963,-0.42535 -0.57694,-0.54712 -0.81521,-0.31282 -0.88201,-0.28815 -0.88201,0.32572 0,0.30394 0.32421,0.5471 0.72948,0.5471 0.40121,0 0.72947,-0.14656 0.72947,-0.3257 z"
       id="path2542" />
    <path
       style="fill:#cdd8d8;fill-opacity:1;stroke:none;stroke-width:0.165344;stroke-miterlimit:4;stroke-dasharray:none;stroke-dashoffset:0;stroke-opacity:1"
       d="m 107.49918,263.49741 c 0.73056,-0.73054 0.51695,-0.86078 -1.47717,-0.90068 -1.05319,-0.0211 -2.8277,-0.3853 -3.94336,-0.80941 -1.9136,-0.7274 -4.354425,-2.62908 -4.354425,-3.3926 0,-0.19113 -0.231221,-0.57874 -0.513822,-0.86132 -0.717422,-0.71743 -1.058816,-3.11727 -0.756329,-5.31662 0.201762,-1.46698 0.536382,-2.13737 1.595484,-3.19648 2.185082,-2.18507 3.623182,-2.68209 7.338342,-2.53626 2.94239,0.11548 3.32945,0.21986 4.61293,1.24372 2.68894,2.14504 3.71952,5.99996 2.40097,8.98079 -1.01485,2.29425 -3.26135,3.40438 -6.83572,3.37793 -4.23456,-0.0312 -6.248242,-1.78591 -6.618232,-5.76675 -0.2138,-2.30042 0.580355,-4.02909 2.423762,-5.27582 1.1013,-0.74484 1.58955,-0.83924 3.55609,-0.68757 3.3325,0.25703 4.94316,1.55174 5.3844,4.32825 0.27482,1.72915 -0.67674,4.09429 -1.86507,4.63572 -0.50007,0.22786 -1.56331,0.41427 -2.36272,0.41427 -4.42922,0 -6.705442,-3.53442 -4.01129,-6.22857 0.72765,-0.72764 1.43138,-1.06616 2.21648,-1.06616 0.78509,0 1.48884,0.33852 2.21647,1.06616 1.19724,1.19723 1.35965,2.38182 0.46252,3.37314 -1.20084,1.32693 -3.83041,0.46901 -3.24426,-1.05847 0.22212,-0.57885 0.30731,-0.559 0.88442,0.20611 0.56992,0.75554 0.68961,0.78524 1.11231,0.27592 0.57109,-0.68812 0.23754,-2.34619 -0.5313,-2.64123 -2.57468,-0.988 -3.83854,3.11082 -1.3508,4.38073 2.26338,1.15535 4.82749,-0.41285 4.82749,-2.95249 0,-1.91343 -1.96095,-3.74408 -4.01054,-3.74408 -2.86463,0 -4.5013,1.73491 -4.51914,4.7904 -0.01,1.66455 0.92,3.05372 2.70562,4.04272 1.9285,1.06813 5.50401,0.72837 6.95396,-0.66075 2.75698,-2.64134 1.98163,-7.6513 -1.45951,-9.43078 -2.30175,-1.19028 -5.69591,-1.00212 -7.95075,0.44076 -0.981562,0.6281 -2.662515,3.89866 -2.659728,5.17492 0.01,4.8823 4.938028,8.68194 9.909258,7.64135 3.63368,-0.7606 5.45524,-2.45964 6.15994,-5.74558 0.50473,-2.35351 -0.037,-5.20153 -1.38451,-7.27985 -0.716,-1.10422 -1.53161,-1.74307 -3.15614,-2.47211 -6.84543,-3.07205 -14.458438,1.54432 -14.033404,8.50957 0.13602,2.22898 0.946304,3.87942 3.057386,6.22744 1.370031,1.52381 2.124958,2.02102 3.943728,2.59748 2.59333,0.82195 4.64781,0.94506 5.27666,0.3162 z"
       id="path2540" />
    <path
       style="fill:#cdd8d8;fill-opacity:1;stroke:none;stroke-width:0.165344;stroke-miterlimit:4;stroke-dasharray:none;stroke-dashoffset:0;stroke-opacity:1"
       d="m 106.10961,265.94548 c 0.51867,-0.62499 0.34314,-0.72036 -2.00248,-1.08799 -4.462797,-0.69945 -7.125298,-2.52026 -8.911146,-6.09404 -2.81228,-5.62784 -0.244894,-12.29527 5.572576,-14.47187 5.17915,-1.93775 11.05217,-0.10511 13.27464,4.14221 0.93531,1.78746 1.45784,4.28981 1.31237,6.2849 -0.14423,1.97825 0.22569,2.63644 0.97459,1.73408 0.31122,-0.37501 0.40039,-1.47986 0.28666,-3.55217 -0.19081,-3.4771 -1.14825,-5.75292 -2.85757,-6.79241 -0.593,-0.36063 -0.99224,-0.74165 -0.8872,-0.84667 0.32248,-0.3225 -2.11488,-1.97789 -3.65861,-2.48483 -2.12767,-0.69872 -6.2123,-0.62114 -8.57131,0.16275 -2.283182,0.7587 -4.966345,2.76481 -5.585066,4.17579 -0.230046,0.5246 -0.526258,1.0359 -0.658254,1.1362 -0.131995,0.10036 -0.514009,0.83889 -0.848954,1.64133 -0.913534,2.18862 -0.687763,6.91635 0.443993,9.29759 1.225032,2.57748 4.552949,5.73806 6.188541,5.87736 0.15255,0.0125 0.48355,0.19475 0.73554,0.40389 1.1421,0.94785 4.54085,1.25808 5.19168,0.47388 z"
       id="path2538" />
    <path
       style="fill:#cdd8d8;fill-opacity:1;stroke:none;stroke-width:0.165344;stroke-miterlimit:4;stroke-dasharray:none;stroke-dashoffset:0;stroke-opacity:1"
       d="m 178.14755,265.15799 c -0.95933,-2.51199 -4.11559,-5.99173 -6.66937,-7.35288 -2.48636,-1.32521 -3.37637,-1.47552 -3.11709,-0.52644 0.096,0.35105 1.18841,1.09436 2.4278,1.6518 3.40111,1.52967 6.70728,5.0105 7.40696,7.79824 0.14225,0.56679 0.33062,0.81457 0.4186,0.55062 0.088,-0.26394 -0.12211,-1.21856 -0.4669,-2.12134 z"
       id="path2536" />
    <path
       style="fill:#cdd8d8;fill-opacity:1;stroke:none;stroke-width:0.165344;stroke-miterlimit:4;stroke-dasharray:none;stroke-dashoffset:0;stroke-opacity:1"
       d="m 106.11318,268.33347 c 0,-0.52933 -0.75921,-0.87926 -2.17503,-1.0025 -3.74373,-0.32588 -6.474555,-1.5657 -8.820569,-4.0047 -4.143198,-4.30736 -4.851033,-9.20282 -2.161612,-14.94995 1.29716,-2.77193 3.067172,-4.54689 6.024499,-6.0413 3.897932,-1.96974 8.080382,-1.74989 12.455592,0.65471 4.3688,2.40111 6.4352,5.65091 6.57127,10.3346 0.10274,3.53596 0.0602,3.31604 0.64155,3.31604 1.09,0 1.06469,-3.4879 -0.0544,-7.4771 -0.52532,-1.87278 -0.98306,-2.55727 -3.17383,-4.74587 -1.408,-1.40659 -3.29858,-2.92254 -4.20131,-3.36876 -2.05269,-1.01464 -1.03072,-1.08096 1.29503,-0.0841 2.39773,1.02778 4.264,2.59719 5.64189,4.74444 1.41007,2.19741 2.61932,6.47571 2.47115,8.74291 -0.0826,1.26345 0.0186,1.64131 0.43983,1.64131 0.43546,0 0.53677,-0.48441 0.49647,-2.37366 -0.10761,-5.05033 -3.74073,-10.88964 -8.04938,-12.93765 -5.96415,-2.83492 -13.825317,-1.51522 -18.910251,3.17456 -3.025128,2.79003 -4.244847,5.95645 -4.212302,10.93532 0.0165,2.52271 0.164879,3.16194 1.173226,5.05379 0.634907,1.19119 1.295623,2.1658 1.468288,2.1658 0.172653,0 0.313923,0.16226 0.313923,0.36057 0,1.45774 5.658004,5.23018 8.936076,5.95808 1.38416,0.30736 3.82974,0.24565 3.82974,-0.0966 z"
       id="path2534" />
    <path
       style="fill:#cdd8d8;fill-opacity:1;stroke:none;stroke-width:0.165344;stroke-miterlimit:4;stroke-dasharray:none;stroke-dashoffset:0;stroke-opacity:1"
       d="m 178.93733,268.22071 c -0.10123,-0.25075 -0.18396,-0.0456 -0.18396,0.45592 0,0.50151 0.0827,0.70668 0.18396,0.45593 0.10124,-0.25077 0.10124,-0.66109 0,-0.91185 z"
       id="path2532" />
    <path
       style="fill:#cdd8d8;fill-opacity:1;stroke:none;stroke-width:0.165344;stroke-miterlimit:4;stroke-dasharray:none;stroke-dashoffset:0;stroke-opacity:1"
       d="m 152.19912,272.03773 c 4.50074,-2.10616 6.78925,-5.56297 7.08201,-10.69747 0.20012,-3.50973 -0.31867,-5.47891 -2.16606,-8.22194 -1.19131,-1.76888 -4.81934,-4.3132 -6.9943,-4.90509 -2.52009,-0.68582 -6.96377,-0.16215 -9.58974,1.1301 -3.75223,1.84647 -5.69789,5.11694 -5.75149,9.66778 -0.0484,4.10401 0.51664,5.64874 2.99395,8.18572 2.91308,2.98319 6.32619,4.06569 10.28442,3.26175 6.8898,-1.39935 10.16161,-6.81105 8.36594,-13.83763 -0.85676,-3.35256 -5.06178,-6.18115 -9.18901,-6.18115 -5.13911,0 -8.71965,2.21617 -9.87698,6.11333 -1.19715,4.03124 0.69914,8.91181 4.14574,10.67015 1.8892,0.9638 5.81648,1.07181 7.83089,0.21541 6.09458,-2.59111 7.05489,-10.35939 1.71727,-13.89165 -1.89371,-1.2532 -4.1404,-1.50122 -6.74296,-0.7444 -6.00206,1.7454 -7.19227,9.0098 -2.05314,12.53129 1.07074,0.73371 1.59714,0.83447 3.79779,0.72691 3.03603,-0.14839 4.52813,-1.01737 5.70377,-3.32182 0.87587,-1.71686 0.78337,-4.75642 -0.18689,-6.14168 -1.49135,-2.12922 -5.25652,-2.87738 -7.58463,-1.50715 -4.29486,2.52777 -2.80609,8.84485 2.08453,8.84485 1.037,0 1.61548,-0.28432 2.6179,-1.28676 1.17161,-1.1716 1.2683,-1.42452 1.0803,-2.82613 -0.38692,-2.88472 -3.30769,-4.17099 -5.1921,-2.28657 -1.03994,1.03996 -1.16646,2.57736 -0.29163,3.54404 0.72866,0.80515 2.51863,0.8815 2.8109,0.11998 0.34636,-0.90263 -0.15297,-1.64131 -1.10951,-1.64131 -1.25979,0 -0.99533,-1.23728 0.29657,-1.38756 1.97634,-0.22992 2.78269,1.93108 1.38404,3.70915 -2.03513,2.58725 -6.14489,-0.37106 -5.06426,-3.64539 0.4177,-1.26563 2.7092,-2.6883 4.3301,-2.6883 3.40206,0 5.52222,4.12917 3.66399,7.13588 -1.49016,2.41113 -6.53892,3.14873 -8.5595,1.2505 -2.09392,-1.96715 -2.45054,-5.32449 -0.84328,-7.9393 0.92079,-1.49801 2.2473,-2.19332 4.74441,-2.4868 4.59046,-0.53953 8.56403,3.44254 7.60959,7.62589 -1.4083,6.17269 -9.86761,8.00169 -13.81259,2.98645 -1.14479,-1.45538 -1.6235,-3.31874 -1.45412,-5.66041 0.27938,-3.86221 2.7656,-6.23708 7.04134,-6.72594 7.28264,-0.83267 11.87052,4.69846 9.53148,11.49111 -0.6742,1.95784 -1.09649,2.56313 -2.55996,3.66922 -2.1557,1.62927 -3.81309,2.1497 -6.83146,2.14509 -4.39664,-0.007 -7.94189,-2.60912 -9.259,-6.79653 -1.26565,-4.02385 0.0138,-8.01257 3.3975,-10.59357 2.08101,-1.58723 4.00895,-2.11563 7.72749,-2.11788 2.73039,-0.001 3.3047,0.11824 4.81382,1.00544 3.3773,1.98532 5.1806,4.52934 5.76776,8.13694 0.7009,4.30655 -1.02738,8.50074 -4.47911,10.8699 -6.09823,4.18566 -14.27544,2.8231 -18.18708,-3.03046 -2.33404,-3.49278 -2.68441,-7.12953 -1.10558,-11.47599 1.66925,-4.59544 5.53831,-7.48719 10.85337,-8.11187 2.36793,-0.27832 1.96135,-0.85983 -0.58107,-0.83112 -3.93443,0.0445 -7.92517,2.31118 -10.16197,5.77195 -3.27868,5.07276 -2.90006,12.66873 0.85269,17.10621 1.55111,1.83416 4.78687,3.73403 7.19678,4.22562 3.10438,0.63323 7.06136,0.17015 9.90108,-1.15872 z"
       id="path2530" />
    <path
       style="fill:#cdd8d8;fill-opacity:1;stroke:none;stroke-width:0.165344;stroke-miterlimit:4;stroke-dasharray:none;stroke-dashoffset:0;stroke-opacity:1"
       d="m 163.53962,270.86505 c 1.68181,-2.62567 2.49883,-4.46608 3.07648,-6.93001 0.585,-2.49533 0.73246,-6.13585 0.34684,-8.56382 -0.39183,-2.46726 -2.61995,-7.27744 -3.73162,-8.05609 -1.33961,-0.93829 -1.35409,0.0509 -0.0329,2.24187 1.93889,3.21516 2.5305,5.55072 2.5334,10.0012 0.004,5.80296 -1.208,9.66411 -4.26453,13.58833 -1.09373,1.4042 -1.21823,1.67047 -0.46814,1.00115 0.56203,-0.50152 1.70521,-1.97871 2.54041,-3.28263 z"
       id="path2528" />
    <path
       style="fill:#cdd8d8;fill-opacity:1;stroke:none;stroke-width:0.165344;stroke-miterlimit:4;stroke-dasharray:none;stroke-dashoffset:0;stroke-opacity:1"
       d="m 149.62722,275.74138 c 4.05556,-0.91877 6.03241,-1.96569 8.36975,-4.43247 1.15349,-1.21736 2.11776,-2.38971 2.14284,-2.60521 0.07,-0.60162 0.15227,-0.82852 0.86938,-2.39787 0.50892,-1.11371 0.67373,-2.40832 0.69651,-5.47104 0.0269,-3.6243 -0.0646,-4.2137 -0.94769,-6.0977 -1.12017,-2.38995 -3.84148,-5.47319 -5.40074,-6.11906 -1.92453,-0.79717 -1.85206,-0.20889 0.16659,1.35219 3.73804,2.89072 5.78588,8.32108 4.9494,13.12454 -0.58097,3.33615 -2.00034,6.06177 -4.17471,8.01672 -2.38618,2.14538 -4.00981,2.93846 -7.10091,3.46852 -5.0696,0.86934 -11.01628,-0.76228 -14.07657,-3.86223 -6.11805,-6.19735 -6.20181,-15.50455 -0.1947,-21.6326 1.72968,-1.7645 5.85444,-4.2152 7.26293,-4.31521 0.31895,-0.0226 1.05864,-0.0692 1.64374,-0.10349 1.29217,-0.0759 0.96679,-0.53444 -0.42817,-0.60352 -3.0113,-0.14913 -8.28218,2.67442 -10.85601,5.81544 -3.08523,3.76513 -4.18853,11.25951 -2.36469,16.06279 3.01379,7.9372 10.6583,11.79042 19.44305,9.80027 z"
       id="path2526" />
    <path
       style="fill:#cdd8d8;fill-opacity:1;stroke:none;stroke-width:0.165344;stroke-miterlimit:4;stroke-dasharray:none;stroke-dashoffset:0;stroke-opacity:1"
       d="m 162.44109,276.34519 c 1.75241,-0.66627 3.12678,-4.02697 1.84759,-4.51784 -0.30091,-0.11548 -0.56044,-0.092 -0.57674,0.0521 -0.0162,0.14416 -0.0635,0.73305 -0.10523,1.30866 -0.0925,1.2829 -1.4082,2.41845 -2.80202,2.41845 -1.10707,0 -1.74115,0.54761 -0.9864,0.8519 0.74989,0.30232 1.62938,0.26431 2.62269,-0.11336 z"
       id="path2524" />
    <path
       style="fill:#cdd8d8;fill-opacity:1;stroke:none;stroke-width:0.165344;stroke-miterlimit:4;stroke-dasharray:none;stroke-dashoffset:0;stroke-opacity:1"
       d="m 124.87785,276.71274 c 2.77569,-1.71547 3.5214,-5.9369 1.5137,-8.56912 -2.54766,-3.34015 -8.31755,-2.14218 -8.85124,1.83774 -0.39202,2.92333 2.01911,5.71807 4.41453,5.11688 3.73422,-0.93725 4.15684,-6.42161 0.49482,-6.42161 -2.14826,0 -3.10303,1.69858 -1.835,3.26453 0.87408,1.07944 1.91167,0.66046 1.91167,-0.77192 0,-0.62494 0.15305,-0.98214 0.36475,-0.8513 0.68973,0.42629 0.40071,2.30421 -0.4459,2.89722 -1.16218,0.81401 -1.94703,0.70418 -2.81027,-0.39326 -1.08451,-1.37872 -0.9721,-2.89103 0.31021,-4.17332 2.795,-2.79501 6.97569,0.27579 5.88583,4.32323 -0.4767,1.7703 -1.21614,2.44785 -3.26793,2.99437 -1.32841,0.35381 -1.86429,0.32823 -3.11292,-0.14862 -2.00694,-0.76647 -2.92149,-2.31852 -2.91827,-4.95251 0.004,-3.48533 1.81945,-5.24173 5.4474,-5.27103 1.20363,-0.01 2.70071,0.11386 3.3268,0.27455 1.0667,0.27381 1.12772,0.23644 0.9691,-0.59336 -0.14147,-0.74003 -0.44535,-0.92341 -1.84913,-1.11582 -3.7544,-0.5146 -6.68761,0.54054 -8.34672,3.00251 -0.92706,1.37565 -1.3983,3.85019 -1.04208,5.47207 0.34985,1.59286 2.23434,4.0332 3.58984,4.6487 1.54798,0.7029 4.64879,0.42017 6.25081,-0.56991 z"
       id="path2522" />
    <path
       style="fill:#cdd8d8;fill-opacity:1;stroke:none;stroke-width:0.165344;stroke-miterlimit:4;stroke-dasharray:none;stroke-dashoffset:0;stroke-opacity:1"
       d="m 163.96003,278.19427 c 2.23106,-1.01324 3.24655,-2.65981 3.24655,-5.26422 0,-1.831 -0.12779,-2.23314 -0.91185,-2.86916 -1.1125,-0.9025 -1.29749,-0.44894 -0.77154,1.89182 0.51908,2.31028 -0.12986,3.94242 -1.93894,4.87702 -1.57583,0.81406 -3.93048,0.92977 -4.76841,0.23434 -0.6074,-0.50408 -1.95742,-0.16785 -1.42697,0.35541 1.53666,1.51572 4.23825,1.83427 6.57116,0.77479 z"
       id="path2520" />
    <path
       style="fill:#cdd8d8;fill-opacity:1;stroke:none;stroke-width:0.165344;stroke-miterlimit:4;stroke-dasharray:none;stroke-dashoffset:0;stroke-opacity:1"
       d="m 151.17272,278.33101 c 3.42076,-0.8784 5.8289,-2.23571 8.31804,-4.68835 2.68197,-2.64266 3.97598,-5.07344 4.85482,-9.11978 1.09559,-5.04436 -0.11161,-10.69966 -3.20307,-15.00435 -0.81197,-1.13066 -1.43306,-1.63192 -2.02197,-1.63192 -0.4675,0 -0.85,0.0604 -0.85,0.13413 0,0.0737 0.72089,1.20915 1.60202,2.52311 2.4162,3.6032 2.95718,5.51916 2.95718,10.47335 0,5.65722 -0.62522,7.64382 -3.32259,10.55728 -1.11864,1.20829 -2.97919,2.77111 -4.13456,3.47295 -6.42359,3.90213 -17.14727,2.79771 -22.23494,-2.28998 -3.57307,-3.57307 -5.3483,-8.74284 -5.03339,-14.65814 0.20016,-3.76011 0.78273,-5.63818 2.65871,-8.57132 1.92227,-3.00551 4.73156,-5.05441 8.77521,-6.40005 2.06851,-0.68836 2.72832,-1.27582 2.11817,-1.88596 -0.25758,-0.25759 -3.24247,0.87613 -6.08629,2.31167 -6.45671,3.25935 -9.88132,11.00961 -8.52245,19.28723 0.62242,3.79142 1.51071,6.1853 3.28962,8.86535 2.32679,3.50547 5.34189,5.58042 9.61355,6.61591 2.85509,0.69209 8.54385,0.69662 11.22194,0.009 z"
       id="path2518" />
    <path
       style="fill:#cdd8d8;fill-opacity:1;stroke:none;stroke-width:0.165344;stroke-miterlimit:4;stroke-dasharray:none;stroke-dashoffset:0;stroke-opacity:1"
       d="m 165.35154,279.63387 c 2.49938,-1.20993 3.96954,-3.28424 4.15616,-5.86409 0.17122,-2.36717 -0.39056,-4.5169 -1.49778,-5.73148 -0.8921,-0.97858 -1.19503,-1.02225 -1.50411,-0.21684 -0.13592,0.35433 0.0551,0.91944 0.46252,1.36777 1.14565,1.26076 1.51482,2.26491 1.51482,4.12028 0,3.35154 -2.45827,5.67323 -6.4864,6.12604 -2.06266,0.23186 -2.49148,0.15669 -4.28643,-0.75148 -1.09696,-0.55501 -2.11618,-0.8874 -2.26492,-0.73866 -0.33186,0.33186 2.00098,2.30086 3.0075,2.53848 1.61651,0.3816 5.28928,-0.0709 6.89864,-0.85002 z"
       id="path2516" />
    <path
       style="fill:#cdd8d8;fill-opacity:1;stroke:none;stroke-width:0.165344;stroke-miterlimit:4;stroke-dasharray:none;stroke-dashoffset:0;stroke-opacity:1"
       d="m 122.7087,279.6187 c -0.12399,-0.2006 -0.0612,-0.36474 0.13933,-0.36474 0.2006,0 0.46617,0.16414 0.59015,0.36474 0.12386,0.20061 0.0614,0.36474 -0.13932,0.36474 -0.2006,0 -0.46618,-0.16413 -0.59016,-0.36474 z"
       id="path2514" />
    <path
       style="fill:#cdd8d8;fill-opacity:1;stroke:none;stroke-width:0.165344;stroke-miterlimit:4;stroke-dasharray:none;stroke-dashoffset:0;stroke-opacity:1"
       d="m 126.39509,279.45808 c 2.14103,-0.9718 3.9123,-3.03644 3.9123,-4.56027 0,-0.56521 -0.33484,-1.45331 -0.74409,-1.97358 l -0.74409,-0.94596 -0.20802,1.28201 c -0.75108,4.62838 -6.45002,7.03297 -11.04169,4.6589 -0.87724,-0.45356 -1.84351,-1.40954 -2.51075,-2.48399 -0.95186,-1.53275 -1.08587,-2.08707 -1.09421,-4.52618 -0.0125,-3.69846 0.79789,-5.05888 3.93385,-6.60245 1.89877,-0.93461 2.70598,-1.1156 5.08386,-1.13991 2.43193,-0.025 2.82672,-0.11761 2.82672,-0.66369 0,-1.02847 -0.35352,-1.10312 -1.63723,-0.3457 -0.83947,0.4953 -1.51731,0.63805 -2.2073,0.46489 l -0.99578,-0.24993 0.87002,-0.50216 c 0.79625,-0.45957 0.71539,-0.48183 -0.95365,-0.26241 -5.76889,0.75842 -9.3018,4.5668 -8.84374,9.53326 0.40863,4.43028 3.06635,8.12723 6.54045,9.09785 2.12223,0.5929 5.5393,0.25149 7.81335,-0.78068 z"
       id="path2512" />
    <path
       style="fill:#cdd8d8;fill-opacity:1;stroke:none;stroke-width:0.165344;stroke-miterlimit:4;stroke-dasharray:none;stroke-dashoffset:0;stroke-opacity:1"
       d="m 127.332,282.271 c 1.92403,-0.86153 4.84312,-3.39767 5.6038,-4.86871 0.44904,-0.86835 0.4325,-1.04379 -0.1479,-1.56905 -0.79022,-0.71513 -1.14314,-0.75099 -1.14314,-0.11611 0,1.02097 -2.3396,3.60117 -4.05233,4.46907 -2.06911,1.04849 -5.65503,1.63136 -7.56372,1.22943 -4.23319,-0.89143 -6.51888,-2.41174 -7.91446,-5.2642 -1.3451,-2.74927 -1.43131,-6.82907 -0.19818,-9.37898 1.93749,-4.00647 6.63228,-6.48478 12.28443,-6.48478 1.3606,0 1.51793,-0.0851 1.34941,-0.72947 -0.15629,-0.59762 -0.49622,-0.72897 -1.88072,-0.72672 -6.71558,0.0113 -11.45804,2.61384 -13.20571,7.24792 -2.55624,6.77808 -1.01459,12.64021 4.03145,15.32975 2.83568,1.51139 4.37689,1.84242 8.0314,1.72506 2.1891,-0.0704 3.60148,-0.32399 4.80567,-0.8632 z"
       id="path2510" />
    <path
       style="fill:#cdd8d8;fill-opacity:1;stroke:none;stroke-width:0.165344;stroke-miterlimit:4;stroke-dasharray:none;stroke-dashoffset:0;stroke-opacity:1"
       d="m 164.72037,282.70334 c 5.51986,-1.57008 8.41831,-7.2312 7.05775,-13.78492 -0.48213,-2.32243 -2.27767,-4.61866 -3.61159,-4.61866 -0.92352,0 -1.10037,1.35798 -0.22081,1.6955 1.10168,0.42274 2.43958,3.34183 2.63236,5.74335 0.22064,2.74885 -0.24139,4.3416 -1.88127,6.48519 -1.73852,2.27252 -3.81153,3.28311 -7.14365,3.48246 -3.0401,0.18189 -4.59391,-0.27915 -6.31432,-1.87358 -1.02515,-0.95009 -2.21976,-1.22911 -2.60355,-0.60813 -0.26766,0.43308 0.96857,1.62574 3.12585,3.01574 2.14546,1.38236 5.17655,1.53902 8.95923,0.46305 z"
       id="path2508" />
    <path
       style="fill:#cdd8d8;fill-opacity:1;stroke:none;stroke-width:0.165344;stroke-miterlimit:4;stroke-dasharray:none;stroke-dashoffset:0;stroke-opacity:1"
       d="m 161.00605,285.08975 c 0.12399,-0.2006 0.2978,-0.36474 0.38626,-0.36474 0.0885,0 0.16085,0.16414 0.16085,0.36474 0,0.2006 -0.17382,0.36473 -0.38627,0.36473 -0.21243,0 -0.28481,-0.16413 -0.16084,-0.36473 z"
       id="path2506" />
    <path
       style="fill:#cdd8d8;fill-opacity:1;stroke:none;stroke-width:0.165344;stroke-miterlimit:4;stroke-dasharray:none;stroke-dashoffset:0;stroke-opacity:1"
       d="m 164.01514,285.58933 c 0.48407,-0.12972 0.82065,-0.5027 0.82065,-0.9094 0,-0.63017 -0.21182,-0.67023 -2.46197,-0.46567 -1.75159,0.15923 -3.14604,0.0467 -4.83277,-0.39016 -2.53998,-0.65779 -5.62682,-2.40397 -6.2248,-3.5213 -0.36773,-0.68714 -1.9572,-0.94925 -2.3086,-0.38071 -0.25581,0.41394 2.96741,3.49093 4.42289,4.22221 2.72754,1.37044 8.11726,2.10624 10.5846,1.44503 z"
       id="path2504" />
    <path
       style="fill:#cdd8d8;fill-opacity:1;stroke:none;stroke-width:0.165344;stroke-miterlimit:4;stroke-dasharray:none;stroke-dashoffset:0;stroke-opacity:1"
       d="m 125.61833,285.25894 c 3.46757,-0.90319 5.17851,-1.82825 7.53027,-4.07143 2.82907,-2.69849 3.12456,-3.2322 2.09467,-3.78338 -0.65691,-0.35157 -0.85033,-0.3094 -1.16573,0.25419 -0.7558,1.35054 -3.64457,4.14874 -5.2982,5.13206 -1.53936,0.91539 -2.08375,1.01971 -5.97078,1.14434 -3.59293,0.11524 -4.67213,0.0138 -6.74763,-0.63448 -5.51435,-1.7222 -8.5091,-6.66131 -7.98221,-13.1647 0.59754,-7.37548 5.51977,-11.58097 13.99168,-11.95429 2.86489,-0.12628 3.73857,-0.28294 3.73857,-0.67048 0,-0.8511 -6.98079,-0.68731 -9.6859,0.22726 -5.3007,1.79215 -8.87262,6.35682 -9.5034,12.14476 -0.33524,3.07626 1.04278,8.22904 2.79284,10.44303 2.33392,2.95263 4.96352,4.5562 8.12222,4.95307 0.8116,0.10199 1.55548,0.26527 1.65308,0.36287 0.38552,0.3855 4.39773,0.14665 6.43052,-0.38282 z"
       id="path2502" />
    <path
       style="fill:#cdd8d8;fill-opacity:1;stroke:none;stroke-width:0.165344;stroke-miterlimit:4;stroke-dasharray:none;stroke-dashoffset:0;stroke-opacity:1"
       d="m 128.67809,286.32927 c 1.47772,-0.49395 3.4392,-1.41579 4.35883,-2.04851 2.15132,-1.48015 4.79423,-4.29687 4.80218,-5.11798 0.009,-0.84489 -1.33853,-0.84337 -1.60677,10e-4 -0.37753,1.1895 -3.66384,4.40102 -5.4858,5.36094 -2.15193,1.1338 -4.67937,1.86947 -7.67309,2.23348 -1.74357,0.21199 -2.00306,0.31954 -1.27658,0.5291 1.36812,0.39462 3.8789,0.0447 6.88123,-0.95883 z"
       id="path2500" />
    <path
       style="fill:#cdd8d8;fill-opacity:1;stroke:none;stroke-width:0.165344;stroke-miterlimit:4;stroke-dasharray:none;stroke-dashoffset:0;stroke-opacity:1"
       d="m 164.37987,288.15443 c 0.65196,-0.099 1.18551,-0.29552 1.18565,-0.43686 1.4e-4,-0.14137 0.40004,-0.28005 0.88866,-0.30819 2.07029,-0.11923 7.49749,-4.08675 9.11841,-6.66599 1.85021,-2.94407 2.68058,-7.80557 2.02943,-11.88159 -0.72804,-4.5573 -3.216,-7.95077 -6.81702,-9.29809 -2.42028,-0.90554 -2.66658,-0.91018 -2.66658,-0.0501 0,0.81767 0.57569,1.32297 1.85408,1.62737 0.51822,0.12336 1.68147,0.87507 2.58501,1.67036 2.19897,1.93563 3.70416,5.24967 3.74071,8.23613 0.0391,3.19754 -0.64819,3.07102 -0.99068,-0.18236 -0.3281,-3.11688 -1.11463,-5.04719 -2.86852,-7.04004 -1.09937,-1.24916 -3.76421,-2.60464 -4.37659,-2.22616 -0.38253,0.23642 0.0972,1.60672 0.56253,1.60672 0.9251,0 3.15157,2.31963 4.12067,4.29311 0.88254,1.7972 1.03311,2.56212 1.0755,5.4636 0.027,1.8556 -0.0814,3.37381 -0.24102,3.37381 -0.15968,0 -0.64539,0.73351 -1.07937,1.63 -0.90067,1.86053 -3.56702,4.24253 -5.53708,4.94654 -1.52981,0.5467 -2.24807,2.17715 -0.95911,2.17715 1.03143,0 2.11387,-0.67286 2.11387,-1.314 0,-0.38126 0.21821,-0.4896 0.68669,-0.34091 0.45182,0.1434 1.22131,-0.19127 2.24963,-0.97843 2.07857,-1.59113 3.40001,-3.91726 4.15023,-7.30575 0.37203,-1.68027 1.06426,-1.21178 0.78549,0.53162 -0.37687,2.35671 -1.45584,4.46657 -3.28345,6.42042 -0.91494,0.97814 -1.54204,1.90183 -1.39354,2.05268 0.14845,0.15084 0.019,0.21762 -0.28776,0.14842 -0.30673,-0.0693 -1.78391,0.44861 -3.28262,1.15071 -2.66058,1.24639 -2.83306,1.27654 -7.30364,1.27654 -4.56193,0 -4.58894,-0.005 -7.36623,-1.37795 -2.50852,-1.24003 -5.38005,-3.75174 -5.38005,-4.70585 0,-0.16451 -0.32826,-0.29909 -0.72947,-0.29909 -1.01401,0 -0.91176,0.73313 0.34398,2.46664 1.19616,1.65124 3.54376,3.39252 6.14225,4.55586 2.53932,1.13685 6.65659,1.43209 10.92994,0.78376 z"
       id="path854" />
  </g>
</svg>
